<svg xmlns="http://www.w3.org/2000/svg" width="1024" height="1024" viewBox="0 0 1024 1024">
  <path fill="#FFFFFF" fill-rule="evenodd" d="M 565 330&#xA;    C 590 225 690 195 770 245&#xA;    C 778 250 784 253 788 256&#xA;    C 870 300 930 395 945 505&#xA;    C 958 600 940 690 915 745&#xA;    L 902 758&#xA;    C 925 690 930 600 918 515&#xA;    C 897 410 845 325 775 297&#xA;    C 766 325 757 360 752 395&#xA;    C 744 480 738 560 734 640&#xA;    L 732 720&#xA;    C 704 736 670 730 650 706&#xA;    C 612 560 580 420 565 330&#xA;    Z&#xA;    M 720 253 a 15 15 0 1 0 0.2 0 Z"></path>
</svg>